<?xml version="1.0" encoding="utf-8"?>
<!-- Generator: Adobe Illustrator 22.1.0, SVG Export Plug-In . SVG Version: 6.00 Build 0)  -->
<svg version="1.1" id="Layer_1" xmlns="http://www.w3.org/2000/svg" xmlns:xlink="http://www.w3.org/1999/xlink" x="0px" y="0px"
	 viewBox="0 0 216 216" style="enable-background:new 0 0 216 216;" xml:space="preserve">
<style type="text/css">
	.st0{fill:#FFFFFF;stroke:#E0E0E0;stroke-width:11.3386;stroke-miterlimit:10;}
	.st1{fill:#FFFFFF;}
	.st2{fill:#2494A6;}
	.st3{fill:#D8E6E8;}
	.st4{fill:#30B2C7;}
	.st5{fill:#82BAC2;}
	.st6{fill:#DEF1F5;}
	.st7{fill:#638B94;}
	.st8{fill:#26525E;}
	.st9{fill:#2CB2C8;}
	.st10{fill:#F4F4F4;}
	.st11{fill:#ED2124;}
	.st12{fill:#FDFEFE;}
	.st13{fill:#FDFDFE;}
	.st14{fill:#54B8C9;}
	.st15{fill:#C2E7EE;}
	.st16{fill:#E5F4F7;}
	.st17{fill:#BAE4EE;}
	.st18{fill:#B2E1EC;}
	.st19{fill:#ABDFEA;}
	.st20{fill:#44B3C7;}
	.st21{fill:#FFFFFD;}
	.st22{fill:#FDFEFF;}
	.st23{fill:#EDEDED;}
	.st24{fill:#33B2C7;}
	.st25{fill:#F26D6E;}
	.st26{fill:#5CC091;}
	.st27{fill:#FACF70;}
</style>
<circle class="st0" cx="107" cy="114" r="51.4"/>
<path class="st1" d="M961,217.6c10.7,0,21.3,0,32,0c0,150.3,0,300.6,0,450.9c-231.2,0-462.4,0-693.8,0c0-150.3,0-300.6,0-450.9
	c6.8,0,13.8,0,20.8,0c0,42-0.1,84,0.2,125.9c0,3.9,1.6,9.1,4.3,11.6c5.8,5.1,12.8,8.8,19.4,12.8c1.9,1.2,4.6,1.1,6.2,2.5
	c4.3,3.6,9.1,5.2,14.7,5.2c184.6,0,369.2-0.1,553.7,0c8.8,0,13.8-6.4,20.5-10.1l0,0c5.2-2.8,10.5-5.6,15.7-8.5
	c0.3-0.2,0.3-0.9,0.4-1.4c0.7-0.7,1.4-1.4,2.1-2.1c0.6-0.7,1.2-1.4,1.8-2.1c0.1-0.9,0.2-1.8,0.3-2.8c0,0,0,0,0,0
	c0.5-2.3,1.5-4.6,1.5-6.9c0.1-31,0.1-61.9,0.1-92.9c0-2.3,0.5-4.6,0.5-6.9C961.3,233.8,961.1,225.7,961,217.6z M657.5,449.3
	c-7.1,8.5-14.1,17-21.2,25.5c-18.8-33.6-47.4-54.3-86.4-56.9c-38.7-2.5-70.3,13.2-93.7,44.8c-22.1-45.6-67.9-54.3-100.6-36.8
	c-32.9,17.6-47.8,57.9-30.4,94.7c7.6,16.1,19.9,28.1,36.4,34.4c27.9,10.7,53.7,5.6,76.8-14.2c12.3,48,40.8,78.8,89.6,85.9
	c49,7.1,84.4-15.5,109.1-56.7c25.1,41.6,60.7,63.8,110,56.4c49.5-7.5,77.1-39.3,88.7-86.9c1,0.7,1.5,1.1,2,1.5
	c17,14.3,36,21.9,58.7,18.6c23.9-3.4,41.7-15.9,53.1-36.8c8.5-15.5,10.5-32.1,6.6-49.7c-2.6-11.7-7.5-22.2-15.3-30.9
	c-17.3-19.1-39-27.7-64.7-23.6c-25.4,4-43.6,18.2-54.3,41.7c-1.8,3.9-2.6,4.1-5.2,0.7c-8.9-11.4-19-21.4-31.5-28.7
	c-20.7-12-42.9-17-66.8-13.9c-17.6,2.3-33.7,8.3-48,18.9c-2.2,1.7-3.7,4.4-5.6,6.6c-22.2-14.6-44.5-29.3-66.7-43.9
	c-10.9-7.2-21.8-14.4-33-21.8c-1.6,2.4-2.9,4.4-4.4,6.6c2,1.4,3.6,2.5,5.3,3.6C596.6,408.8,627.1,429,657.5,449.3z"/>
<path class="st2" d="M512,217.6c8,0,16,0,24,0c0.4,0.3,0.8,0.8,1.2,0.8c12.2,0,24.5,0,36.7,0c0.4,0,0.8-0.5,1.2-0.8
	c12.3,0,24.7,0,37,0c0.6,1.1,0.9,2.7,1.8,3.3c8,5.1,8.4,12.3,5.8,20.3c-0.2,0.5-0.2,1-0.3,1.5c-99.1,0-198.3,0-297.4,0
	c-0.1-6.9-0.4-13.8-0.1-20.6c0.1-1.5,2.1-3,3.2-4.4c41.7,0,83.3,0,125,0c0.3,0,0.7,0,1,0c8.7,0,17.3,0,26,0c1,0.3,2.1,1,3.1,1
	c9.6,0.1,19.2,0.1,28.8,0C509.9,218.5,510.9,217.9,512,217.6z"/>
<path class="st2" d="M672,217.6c26.7,0,53.3,0,80,0c2,0,4,0,6,0c0.3,0,0.7,0,1,0c2.1,0.3,4.1,1,6.2,1c62.9,0.1,125.8,0,188.8,0.1
	c1.9,0,3.8,0,6.5,0c-0.5,8.6-0.9,16.3-1.3,24.1c-2.3,0-4.7-0.1-7-0.1c-90.8,0-181.5,0-272.3,0c-5,0-10,0.1-15,0.1
	c-0.4-2.3-0.4-4.7-1.2-6.8c-1.8-5.2,0-8.8,3.9-12.2C669.4,222.1,670.5,219.6,672,217.6z"/>
<path class="st3" d="M325,217.6c-1.1,1.5-3.1,2.9-3.2,4.4c-0.3,6.9,0,13.7,0.1,20.6c-0.1,33.2-0.1,66.3-0.2,99.5
	c0,11.1,5.4,16.5,16.6,16.6c2.3,0,4.7,0,7,0c198.1,0,396.2,0,594.3-0.1c5.1,0,10.3-1.9,15.4-2.9c-0.1,0.5-0.1,1.2-0.4,1.4
	c-5.2,2.9-10.4,5.7-15.7,8.5c1.1-1.5,2.3-3,3.6-4.7c-202,0-403.4,0-605.5,0c3.7,4.7,7.9,5.8,13,5.8c191.5-0.1,383,0,574.5-0.1
	c4.8,0,9.6-0.6,14.4-1c-6.6,3.7-11.7,10.1-20.5,10.1c-184.6-0.1-369.2-0.1-553.7,0c-5.6,0-10.3-1.7-14.7-5.2
	c-1.6-1.4-4.4-1.3-6.2-2.5c-6.6-4.1-13.6-7.8-19.4-12.8c-2.8-2.4-4.3-7.6-4.3-11.6c-0.3-42-0.2-84-0.2-125.9
	C321.7,217.6,323.3,217.6,325,217.6z M929.6,370.2c-0.2-0.5-0.3-0.9-0.5-1.4c-192.1,0-384.2,0-576.9,0c3.4,4.2,7.4,4.8,11.8,4.8
	c184.6,0,369.2,0,553.8,0c1.2,0,2.4,0.3,3.5-0.1C924.2,372.6,926.9,371.3,929.6,370.2z"/>
<path class="st4" d="M617,217.6c17,0,34,0,51,0c-6.4,5.8-11.4,12-7.9,21.6c0.6,1.8,0.1,5.2-1.2,6c-1.3,0.9-4.6,0.5-6.2-0.6
	c-7.2-5-14.1-5.3-21.1,0.1c-0.5,0.4-1.2,0.7-1.8,0.9c-3.6,1.5-6.8-0.2-5.9-3.7C626.7,232.1,624.5,224.2,617,217.6z"/>
<path class="st5" d="M959.1,242.6c0.4-7.7,0.8-15.4,1.3-24.1c-2.7,0-4.6,0-6.5,0c-62.9,0-125.8,0-188.8-0.1c-2.1,0-4.1-0.6-6.2-1
	c67.3,0,134.7,0,202,0c0.1,8.1,0.3,16.3,0.3,24.4c0,2.3-0.5,4.6-0.5,6.9c0,31,0,61.9-0.1,92.9c0,2.3-1,4.6-1.5,6.9
	c-0.1-0.7-0.3-1.3-0.3-2C959.1,312.1,959.1,277.4,959.1,242.6z"/>
<path class="st6" d="M617,217.6c7.5,6.6,9.7,14.6,7,24.3c-1,3.5,2.2,5.2,5.9,3.7c0.6-0.2,1.3-0.5,1.8-0.9c7-5.4,13.9-5.1,21.1-0.1
	c1.6,1.1,4.9,1.5,6.2,0.6c1.3-0.9,1.8-4.3,1.2-6c-3.4-9.6,1.5-15.8,7.9-21.6c1.3,0,2.7,0,4,0c-1.4,2.1-2.5,4.5-4.4,6.1
	c-3.9,3.4-5.8,7-3.9,12.2c0.8,2.2,0.8,4.6,1.2,6.8c-2.9,8.4-7.1,10-14.9,5.8c-1.7-0.9-3.2-2.1-4.9-3.2c-1.8-0.2-3.8-1.1-5.3-0.6
	c-2.9,1.1-5.4,3-8.1,4.6c-0.9,0.3-1.8,0.6-2.7,1c-1,0-2,0-3,0c-0.2-0.1-0.4-0.2-0.6,0c-0.5-0.3-1-0.5-1.5-0.8
	c-0.2-0.2-0.4-0.2-0.6-0.2c-0.4-0.3-0.9-0.7-1.3-1c-0.9-1.9-1.9-3.8-2.8-5.7c0.1-0.5,0.1-1,0.3-1.5c2.6-8.1,2.2-15.2-5.8-20.3
	c-0.9-0.6-1.2-2.2-1.8-3.3C613.7,217.6,615.3,217.6,617,217.6z"/>
<path class="st7" d="M575,217.6c-0.4,0.3-0.8,0.8-1.2,0.8c-12.2,0-24.5,0-36.7,0c-0.4,0-0.8-0.5-1.2-0.8
	C549,217.6,562,217.6,575,217.6z"/>
<path class="st7" d="M512,217.6c-1,0.3-2.1,1-3.1,1c-9.6,0.1-19.2,0.1-28.8,0c-1,0-2.1-0.7-3.1-1C488.7,217.6,500.3,217.6,512,217.6
	z"/>
<path class="st8" d="M758,217.6c-2,0-4,0-6,0C754,217.6,756,217.6,758,217.6z"/>
<path class="st8" d="M451,217.6c-0.3,0-0.7,0-1,0C450.3,217.6,450.7,217.6,451,217.6z"/>
<path class="st9" d="M623.4,249.4c0.2,0,0.4,0,0.6,0.2c0.5,0.3,1,0.5,1.5,0.8c0.2-0.1,0.4-0.1,0.6,0.1c1,0,2,0,3,0
	c0.9-0.3,1.8-0.6,2.7-1c0.9,0.6,1.8,1.1,2.7,1.7c-0.1,1.6-0.2,3.2-0.2,4.8c0,2.7,1.3,3.5,3.8,2.4c0.6,0.4,1.2,0.9,1.8,1.3
	c0.4,1.3,0.9,2.6,1.3,3.9c0.3,0,0.7,0,1,0c0.2-0.1,0.4-0.2,0.6-0.2c0.2-0.3,0.3-0.5,0.5-0.8c0.1-0.7,0.2-1.3,0.3-2
	c1.5-0.6,3.1-1.2,4.6-1.8c0.2-0.2,0.4-0.3,0.6-0.4c0.1-2.3,0.2-4.6,0.2-6.9c-1-0.4-2-0.7-2.9-1.1c-0.3-1.7-0.6-3.4-0.9-5.1
	c1.6,1.1,3.2,2.2,4.9,3.2c7.8,4.2,12,2.5,14.9-5.8c5,0,10-0.1,15-0.1c90.8,0,181.5,0,272.3,0c2.3,0,4.7,0.1,7,0.1
	c0,34.7-0.1,69.4-0.1,104.1c0,0.7,0.2,1.3,0.3,2c0,0,0,0-0.1,0c-0.4,0.9-0.8,1.9-1.3,2.8c-0.3,0.7-0.6,1.4-0.9,2.1
	c-0.7,0.7-1.4,1.4-2.1,2.1c-5.1,1-10.3,2.9-15.4,2.9c-198.1,0.2-396.2,0.1-594.3,0.1c-2.3,0-4.7,0-7,0c-11.1-0.1-16.6-5.5-16.6-16.6
	c0-33.2,0.1-66.3,0.2-99.5c99.1,0,198.3,0,297.4,0c0.9,1.9,1.9,3.8,2.8,5.7C622.5,248.7,623,249,623.4,249.4z M458.9,278.7
	c-0.5-0.3-1-0.6-1.4-0.9c-0.2,0.2-0.3,0.2-0.5,0c-0.7-0.1-1.3-0.2-2-0.3c-8.1,0.5-11.8,3.6-11.9,10.1c-0.8,0.1-1.6,0.2-2.4,0.2
	l0.1-0.1c-0.4-0.3-0.9-0.6-1.3-0.9c-0.2,0.1-0.4,0-0.5-0.1c0.3-1.2,0.6-2.3,0.9-3.5c1.5-2.2,1.6-4-1.6-4.6c-2.1-0.4-4.2-0.8-6.2-0.8
	c-3.6,0-6,2-6.5,5.6c-0.5,3.6,1.9,5.4,5,6.3c2.1,0.6,4.1,1.3,6.6,2.1c-2.5,3.8-5,2.1-7.4,1.5c-1.3-0.3-2.7,0.1-4,0.2
	c0.5,1.3,0.9,2.5,1.4,3.8c1.1,0.4,2.1,0.8,3.2,1.1c0.6,0.1,1.1,0.2,1.7,0.3c1.3,0,2.7-0.1,4-0.1c1.4-0.6,2.8-1.3,4.2-1.9
	c1.3-1.4,2.5-2.7,3.8-4.1c3.7,5.7,8.9,7.5,14.8,4.9c1.1-0.5,1.5-2.5,2.2-3.8c0.4-1.3,0.7-2.6,1.1-4c0.2-0.2,0.4-0.3,0.6-0.3
	c1.3-1.4,2.6-2.9,3.9-4.3c1.5,3.5,3.4,6.9,4.4,10.6c0.4,1.5-0.8,3.6-1.7,5.2c-0.6,1.2-1.9,2.2-2.8,3.2c1.5,0.5,3.1,1.5,4.4,1.2
	c1.7-0.4,4-1.5,4.7-2.9c3.1-6.6,5.8-13.4,8.4-20.3c0.4-1.1-0.8-2.7-1.2-4.1c-1.2,0.8-3,1.3-3.6,2.5c-1.6,2.8-2.6,5.9-4.3,10
	c-1.5-3.5-2.2-6.1-3.6-8.3c-1-1.6-2.7-2.8-4.1-4.1c-0.4,1.9-0.8,3.7-1.3,5.6c-1.3-0.6-2.6-1.3-4-1.9l0,0c-0.3-0.4-0.7-0.7-1-1.1
	c-0.3-0.3-0.6-0.6-0.9-1C459.6,279.3,459.2,279,458.9,278.7L458.9,278.7z M903.2,312.4L903.2,312.4c0.6,0.1,1.2,0.2,1.8,0.3
	c0.7-0.4,1.4-0.7,2.1-1.1c1.3-0.7,2.5-1.3,3.8-2c4.6,4.2,10.9,4.9,14.8,1.4c3.8-3.4,2.1-6.8,0.5-8.7c0.3-3.9,1.5-7.5,0.3-8.9
	c-1.7-2-5.3-3.5-8-3.4c-2.5,0-5,2.3-7.5,3.7c-1.2-0.7-2.5-1.4-3.7-2.1c-1.7-2.3-3.5-2.2-5.4-0.2c-1.2,1.2-2.4,2.3-3.6,3.4
	c-0.1,0.3-0.3,0.6-0.4,0.8c0.1,1,0.1,2,0.2,3c0.3,0.1,0.7,0.2,1,0.3c0.7-0.1,1.3-0.3,2-0.4c0.6,0.4,1.1,0.8,1.7,1.2
	c0.1,4,0.2,8,0.3,11.9c-0.1,0.1-0.2,0.2-0.3,0.3C902.8,312.1,903,312.2,903.2,312.4z M362.8,319.7c-0.3-0.3-0.6-0.7-0.9-1l-0.1,0
	c-0.2-1.2-0.4-2.4-0.7-3.6c0.3-0.2,0.5-0.4,0.8-0.5c-0.1-0.6-0.1-1.3-0.2-1.9c-3.6-2-7.3-3-10.3,0.6c-2.7,3.2,0.5,5.4,2.2,7.7
	c0.2,0.2,0.1,0.6,0.1,0.3c-1,1.3-1.8,2.4-2.6,3.4c1,0.7,2.2,2.1,3.1,2c2.7-0.3,5.4-1.3,8.1-2c1-0.1,2-0.2,3-0.3
	c5.3,4.1,8.6,3.8,12.7-0.8c0.7,0,1.4,0,2.1-0.1c0.7,1,1.3,2,2.1,3c0.1,0.1,1.5-0.5,1.5-0.8c0.1-6.4,6.9-3.4,8.7-7.6
	c0.8,1.3,1.4,1.8,1.3,2.1c-0.8,6.7,3.2,7.2,8.2,6.5c1-0.1,2-0.1,3-0.2c0.5,0,1.1-0.1,1.6-0.1c4.5,1.6,3-3,4.1-4.4
	c3.1,0.5,2.9,6.2,6.5,3.8c0.2-2.9,1.5-5.2,1.4-7.5c-0.1-2.2-1.3-6-2.6-6.3c-3-0.7-6.4,0.4-9.6,0.7c-0.4,0-0.7-0.1-1.1-0.1
	c-0.4-0.4-0.8-0.8-1.1-1.1c-3,0-6,0-9,0.1c-1.2,1.3-1.9,1.9-4.2,1.1c-3.2-1-7,0-10.5,0.2c-0.7-0.1-1.4-0.2-2-0.3
	c-1.1,0.4-2.6,0.5-3.2,1.3c-0.6,0.8-0.1,2.2-0.2,3.4c0,2.6,0.4,6.1-3.2,6.2c-4,0.1-3.4-3.6-3.6-6.4c-0.1-1.9-0.5-3.7-0.8-5.6
	c-0.6,0-1.3,0.1-1.9,0.1c-0.2,2.6-0.5,5.3-0.7,7.9c-0.6,0.1-1.2,0.2-1.9,0.4L362.8,319.7z M440.8,326.4c1.1,0,2.1,0.1,3.2,0.1
	c1.4-1.1,2.9-2.2,4.5-3.4c1.5,1,3.5,2.4,5.6,3.7c0.6-0.3,1.1-0.7,1.7-1c-4.9-4.5-5.8-9.1-0.2-13.9c-0.6-0.3-1.3-0.6-1.9-0.9
	c-2,1.3-4,2.6-5.4,3.5c-1.5-1.1-2.9-2-4.2-3c-2,0-4,0-6,0c0,3.9-0.1,7.8-0.1,11.7c-2.5,0-5.1,0-8,0c0-3.5,0.2-6.3-0.1-9.1
	c-0.1-1.1-1.1-2-1.7-3.1c-0.7,0.9-2,1.9-2,2.8c0.2,12.9-2.8,13.7,11.8,12.2C438.9,326.3,439.9,326.4,440.8,326.4z M470,324.7
	c-3-0.6-6-1.3-9.1-1.9c0-0.4,0-0.9,0-1.3c2.5-0.6,5-1.3,7.5-1.9c-0.1-0.4-0.1-0.8-0.2-1.2c-2.4-0.6-4.8-1.3-7.2-1.9
	c0.1-0.4,0.1-0.8,0.2-1.1c2.4-0.6,4.8-1.1,7.2-1.7c-0.1-0.7-0.1-1.4-0.2-2c-3,0-6.3-0.8-8.9,0.2c-4.4,1.6-1.8,6-2.1,9.1
	c-0.2,1.8,1.3,3.8,2,5.7c0,0.1,0.3,0.1,0.5,0.1c3.4-0.3,6.9-0.6,10.3-1c2.9,0.3,5.9,1,8.7,0.7c3.9-0.5,5.9-4.4,5.2-8.8
	c-0.7-4.7-4.3-6.6-10.8-6.1c-4.9,0.3-2.9,3.9-3.2,6.3C469.7,320,470,322.4,470,324.7z M872.1,285.8c-0.8,1.3-1.5,2.5-2.3,3.8
	c-1,0-1.9,0-2.9,0c-1-0.6-2-1.3-3-1.9c-0.3-0.1-0.7-0.1-1-0.2c-1.3,0-2.7,0-4,0.1c-0.3,0.1-0.6,0.1-0.9,0.2c-1,0.6-2,1.3-3,1.9
	c-0.8,0-1.6-0.1-2.4-0.1c-0.9-1.3-1.8-2.6-2.7-3.9c-0.3-0.1-0.6-0.2-1-0.3c-1.3,0-2.7-0.1-4-0.1c-1,0.4-2,0.9-3,1.3
	c-0.3,0.3-0.6,0.6-1,1c-0.3,0.4-0.6,0.8-0.9,1.2c0,0.3-0.1,0.5-0.2,0.8c-0.1,0.1-0.4,0.2-0.4,0.2c0,0.3,0.1,0.5,0.2,0.8
	c0,1.7,0,3.3,0,5c-0.1,0.1-0.3,0.3-0.3,0.3c0.1,0.2,0.3,0.5,0.4,0.7c0.5,1.2,1.1,2.3,1.6,3.5c-0.4-0.1-0.8-0.2-1.2-0.3
	c-1.2,2.9-4.1,7.1-3.1,8.5c1.8,2.5,5.2,5.7,9.5,3.2c1,0.7,2,1.4,3,2.1c0.4,0.6,0.9,1.1,1.3,1.7c0.7,0.4,1.4,0.7,2.1,1.1
	c0.6,0.1,1.1,0.2,1.7,0.3c4.3,2.9,8.6,2.8,13,0.1c0.9-0.1,1.7-0.3,2.6-0.4c0.4-0.3,0.8-0.7,1.3-1c0.4-0.6,0.8-1.2,1.2-1.7
	c2-0.3,4.1-0.5,6.1-1.1c1.4-0.4,2.6-1.2,3.9-1.9c4.1-1.4,4.2-4.3,1.6-6.8c-2.8-2.8-3.4-5.1-2-8.9c1.4-3.6-0.2-7.1-3.7-9.3
	c-0.3-0.1-0.6-0.2-1-0.3c-1-0.1-2-0.1-3-0.2C874,285.4,873,285.6,872.1,285.8z M415.9,278.4c-0.9-0.2-1.7-0.4-2.5-0.5
	c-4-0.8-7.6-0.2-10,3.6c-2.2,3.6-2,10.7,0.5,13.8c2.7,3.4,6.3,3.8,10.4,2.7c1-0.3,2.2-0.4,3.2-0.1c3.2,0.9,4.3-0.5,4.3-3.5
	c0-5.6,0.2-11.3-0.1-16.9c-0.1-2.3-1.4-6.5-2.2-6.5c-4.5-0.1-2.2,4.1-3.2,6.3C416.2,277.5,416.2,277.7,415.9,278.4z M535.2,274.6
	c3.7,0,7,0.1,10.2-0.1c0.8-0.1,1.6-1.2,2.4-1.8c-0.8-0.6-1.5-1.7-2.4-1.8c-2.5-0.3-5-0.1-7.5-0.1c-7.2,0-7.9,0.7-7.4,8.1
	c0.2,2.3,0.5,4.6,0.7,6.9c2.3-0.3,4.5-1.1,6.8-0.9c2.1,0.2,4.6,0.8,6.1,2.2c0.9,0.8,1,4,0.1,4.9c-1.4,1.4-3.8,2.3-5.9,2.5
	c-1.4,0.2-2.9-1.4-4.5-1.8c-0.9-0.3-2,0-3.1,0c0.2,1.2,0.1,3.1,0.6,3.3c3,1.1,6.2,2.5,9.3,2.5c5.7,0.1,9.2-4.2,8.8-9.8
	c-0.4-5.4-4.1-8.4-9.9-8c-1.4,0.1-2.8,0.4-4.4,0.6C535.2,279.1,535.2,277.3,535.2,274.6z M514.4,294c3.2-3.4,5.7-5.7,7.9-8.4
	c3.8-4.8,3.7-9.7,0.1-13c-3.3-3.1-10.2-3.2-13.9,0c-0.9,0.8-1.1,2.4-1.7,3.6c1.3-0.1,2.8,0.2,3.9-0.3c3-1.7,6.2-2.6,8.6,0.2
	c2.7,3,0.4,5.9-1.5,8.5c-0.9,1.2-2.1,2.2-3.2,3.2c-2.4,2.1-4.9,4-7.2,6.2c-0.7,0.7-1.1,2-1,3c0,0.5,1.6,1.1,2.4,1.2
	c4.5,0.1,9,0.2,13.5,0c1,0,1.9-1.3,2.8-2c-1.1-0.5-2.1-1.4-3.2-1.5C519.8,294.1,517.6,294.2,514.4,294z M398.9,289.3
	C398.8,289.3,398.8,289.3,398.9,289.3c-0.1-2,0.2-4-0.1-6c-0.4-3.3-2.2-5.6-5.8-5.7c-3.4,0-6.8,0-10.2,0.4c-0.8,0.1-2,1.8-2,2.9
	c-0.2,4.6-0.3,9.3,0,13.9c0.1,1.2,1.8,2.2,2.8,3.3c0.8-1.1,2.1-2.1,2.3-3.3c0.4-2.1,0.2-4.3,0.1-6.5c-0.1-3.1,0.3-5.9,4.2-5.9
	c3.8,0,3.1,3.1,3.2,5.5c0.1,1.8-0.3,3.7,0.1,5.5c0.4,1.7,1.7,3.1,2.6,4.6c0.9-1.5,2.2-2.8,2.7-4.4
	C399.2,292.4,398.9,290.8,398.9,289.3z M355.8,293c0-5.7,0.2-10.5-0.1-15.3c-0.1-2.5,1.7-6.6-2.7-6.8c-4.5-0.2-2.7,4.1-2.9,6.5
	c-0.3,2.8-0.1,5.7-0.1,8.5c0.1,13.8-1.9,12.1,12.8,12.2c0.5,0,1.1,0.2,1.5-0.1c1.1-0.7,2.1-1.6,3.2-2.4c-1-0.9-2-2.3-3.1-2.5
	C361.9,292.7,359.2,293,355.8,293z M539.6,326.6c0.6-1.8,1.4-3.6,1.6-5.5c0.3-2.9,0.5-5.9,0.1-8.8c-0.1-0.5-3.3-0.7-5.1-0.8
	c-5.9-0.4-3.1,4.3-4,6.8c-0.6,1.8-1.7,3.5-2.5,5.2c-1.2-1.7-2.7-3.3-3.5-5.1c-1-2.1-1.3-4.5-2-6.8c-0.7,2.5-1.4,5-2,7.5
	c-0.2,0.8-0.2,1.9,0.2,2.4c1.7,2,3.5,5,5.6,5.3c2.4,0.3,5.2-1.7,7.7-3c0.8-0.4,1-1.9,1.9-3.6C538.5,323,539.1,324.9,539.6,326.6z
	 M513.1,310.8c-4.7-0.1-8.1,3.2-8.2,8.1c-0.1,5,3,8.3,7.8,8.5c4.8,0.2,8.2-3.2,8.3-8C521.1,314.3,517.9,310.9,513.1,310.8z
	 M376,288.5C376,288.5,376,288.5,376,288.5c0-2.3,0.3-4.7-0.1-6.9c-0.2-1.1-1.5-2.1-2.3-3.1c-1,0.8-2.8,1.6-2.8,2.5
	c-0.3,4.8-0.3,9.6,0,14.4c0.1,1,1.8,1.9,2.7,2.8c0.8-1.1,2.1-2.1,2.3-3.2C376.2,292.9,376,290.7,376,288.5z M493.4,310.2
	c-0.7,0.7-1.5,1.3-2.2,2c0.1,0.6,0,1.3,0.2,1.8c1.5,3.8,3,7.5,4.7,11.2c0.3,0.6,1.4,1.3,1.7,1.2c0.7-0.4,1.5-1.2,1.8-2
	c1.2-3,2.3-6,3.4-9.1c0.4-1,0.6-2.1,0.8-3.1c-0.4-0.4-0.8-0.7-1.2-1.1c-1.8,1.6-3.5,3.3-5.7,5.3
	C495.7,314.3,494.6,312.3,493.4,310.2z M487.9,303c4-1.1,6.6-5.6,4.6-8.7c-0.7-1.1-3-1.8-4.4-1.7c-0.7,0.1-1.7,2.5-1.6,3.9
	C486.5,298.5,487.3,300.5,487.9,303z M377.9,273.8c-2.2-1.5-3.4-3-4.6-3c-1,0-2.1,1.5-3.2,2.4c1,1.1,1.8,2.9,2.9,3.2
	C374.1,276.6,375.5,275.1,377.9,273.8z"/>
<path class="st10" d="M664.8,444c1.8-2.2,3.3-4.9,5.6-6.6c14.3-10.6,30.4-16.6,48-18.9c23.9-3.2,46.1,1.8,66.8,13.9
	c12.5,7.3,22.6,17.3,31.5,28.7c2.6,3.4,3.4,3.2,5.2-0.7c10.7-23.5,28.9-37.6,54.3-41.7c25.7-4.1,47.5,4.5,64.7,23.6
	c7.8,8.7,12.7,19.1,15.3,30.9c4,17.6,1.9,34.2-6.6,49.7c-11.4,20.9-29.2,33.3-53.1,36.8c-22.6,3.3-41.7-4.3-58.7-18.6
	c-0.5-0.4-1-0.8-2-1.5c-11.6,47.6-39.2,79.4-88.7,86.9c-49.3,7.5-84.9-14.8-110-56.4c-24.7,41.2-60.1,63.8-109.1,56.7
	c-48.8-7.1-77.3-37.9-89.6-85.9c-23.2,19.9-49,25-76.8,14.2c-16.5-6.3-28.9-18.3-36.4-34.4c-17.4-36.9-2.5-77.2,30.4-94.7
	c32.7-17.5,78.5-8.8,100.6,36.8c23.4-31.6,54.9-47.4,93.7-44.8c39,2.6,67.6,23.3,86.4,56.9c7.1-8.5,14.2-17,21.2-25.5
	c5.6,3.7,11.1,7.4,16.7,11.2c-2.3,2.4-4.6,4.7-6.8,7.2c-16.7,18.6-22.8,40.7-20.2,65c2.6,24,14.1,43.9,33.7,58.1
	c19.3,14,41,19.5,64.9,15c18.9-3.6,34.6-12.7,47.5-27c12.8-14.2,20-31,21.5-49.7c1.7-21.8-4.7-41.5-18.4-58.8
	c-15.3-19.4-35.5-29.5-59.7-31.6c-16.4-1.4-32,2.1-46.4,10.3c-3,1.7-5.6,4.3-8.3,6.4C676.3,451.6,670.5,447.8,664.8,444z M858,531.6
	L858,531.6c0.7,0.8,1.2,1.9,2.1,2.5c9.6,6.4,20.5,8.5,31.7,7.3c5.2-0.6,10.1-3.1,15.2-4.8c0,0,0,0,0,0c1.7-1,3.3-2,5-3
	c1-0.7,2-1.3,3-2c1-0.7,2-1.3,3-2c3.3-3.7,7-7.1,10-11.1c7.7-10.5,10-22.6,9.1-35.4c-0.9-12.2-6.4-22.3-14.9-30.6
	c-7.9-7.7-17.6-12.3-28.6-13.5c-12.8-1.4-24.8,0.8-35.5,8.2c-9.5,6.7-16.6,15.3-20,26.6c-3.7,12.5-3.6,25,3.2,36.5
	c4,6.8,9.1,12.9,13.7,19.4C856,530.2,857,530.9,858,531.6z M626,523.1c-0.4-46.9-37.3-83.6-81.4-84.5c-50.5-1.1-87.1,37.6-87.2,83.1
	c-0.1,48.9,36,85.4,84.5,85.5C589,607.2,624.5,570.1,626,523.1z M338,488.8c-0.4,27.6,21.6,50.7,49.8,50.6c29.7,0,50.5-23,50.8-49.5
	c0.4-29.2-21.5-51-50.5-51.5C361.9,438.1,336.8,461.1,338,488.8z"/>
<path class="st11" d="M664.8,444c5.7,3.8,11.4,7.6,17.2,11.4c5.2,3.5,10.3,7,16.1,11c0-4.6,0-8.3,0-11.9c0.2-0.1,0.5-0.1,0.7-0.2
	c3.3,7.9,6.6,15.7,10,23.9c-9.2,0-17.8,0-27.9,0c5-1.9,8.6-3.3,13.2-5c-7-4.5-13.5-8.6-19.9-12.6c-5.6-3.7-11.1-7.4-16.7-11.2
	c-30.5-20.3-60.9-40.5-91.4-60.8c-1.7-1.1-3.3-2.2-5.3-3.6c1.4-2.2,2.8-4.2,4.4-6.6c11.2,7.4,22.1,14.6,33,21.8
	C620.4,414.8,642.6,429.4,664.8,444z"/>
<path class="st3" d="M957.1,353.6c0.3-0.7,0.6-1.4,0.9-2.1c0.3,0,0.6,0,0.9-0.1C958.3,352.2,957.7,352.9,957.1,353.6z"/>
<path class="st5" d="M958.9,351.5c-0.3,0-0.6,0-0.9,0.1c0.4-0.9,0.8-1.9,1.3-2.8C959.1,349.7,959,350.6,958.9,351.5z"/>
<path class="st12" d="M939,365.6c-4.8,0.3-9.6,1-14.4,1c-191.5,0-383,0-574.5,0.1c-5.1,0-9.4-1.1-13-5.8c202.1,0,403.5,0,605.5,0
	C941.3,362.6,940.1,364.1,939,365.6C939,365.6,939,365.6,939,365.6z"/>
<path class="st13" d="M929.6,370.2c-2.7,1.1-5.4,2.4-8.2,3.3c-1,0.4-2.3,0.1-3.5,0.1c-184.6,0-369.2,0-553.8,0
	c-4.4,0-8.4-0.6-11.8-4.8c192.7,0,384.8,0,576.9,0C929.3,369.3,929.4,369.8,929.6,370.2z"/>
<path class="st14" d="M645.1,245.4c0.3,1.7,0.6,3.4,0.9,5.1c-0.5,3.1-3,6.7,2.1,8.4c-1.5,0.6-3.1,1.2-4.6,1.8
	c-0.3-4.5-0.6-9-0.9-13.4c-0.7,0-1.4,0-2.2,0.1c-0.2,4.1-0.4,8.3-0.7,12.4c-0.6-0.4-1.2-0.9-1.8-1.3c0-1.6,0.5-3.4-0.1-4.8
	c-0.5-1.1-2.2-1.7-3.4-2.4c-0.9-0.6-1.8-1.1-2.7-1.7c2.7-1.6,5.2-3.5,8.1-4.6C641.2,244.2,643.3,245.1,645.1,245.4z"/>
<path class="st14" d="M629,250.3c-1,0-2,0-3,0C627,250.4,628,250.3,629,250.3z"/>
<path class="st14" d="M625.4,250.3c-0.5-0.3-1-0.5-1.5-0.8C624.5,249.8,624.9,250.1,625.4,250.3z"/>
<path class="st14" d="M623.4,249.4c-0.4-0.3-0.9-0.7-1.3-1C622.5,248.7,623,249,623.4,249.4z"/>
<path class="st15" d="M864,287.7c1,0.6,2,1.3,3,1.9c0.6,1.3,2.1,2.9,1.8,4c-2,7.5,0.6,13.8,4.3,20c-0.4,0.6-0.8,1.2-1.2,1.7
	c-0.4,0.3-0.8,0.7-1.3,1c-0.9,0.1-1.7,0.3-2.6,0.4c-4.3,0-8.7,0-13-0.1c-0.6-0.1-1.1-0.2-1.7-0.3c-0.7-0.4-1.4-0.7-2.1-1.1
	c-0.4-0.6-0.9-1.1-1.3-1.7c1.1-2.3,2.4-4.5,3.4-6.9c0.6-1.5,1.7-3.5,1.2-4.7c-1.8-4.4-1.5-8.3,0.7-12.3c1-0.6,2-1.3,2.9-1.9
	c0.3,0,0.6-0.1,0.9-0.2c1.3,0,2.7,0,4-0.1C863.3,287.5,863.6,287.6,864,287.7z"/>
<path class="st16" d="M415.9,278.4c0.3-0.8,0.3-0.9,0.4-1.1c1-2.3-1.4-6.5,3.2-6.3c0.8,0,2.1,4.2,2.2,6.5c0.3,5.6,0.1,11.3,0.1,16.9
	c0,3-1.1,4.4-4.3,3.5c-1-0.3-2.2-0.2-3.2,0.1c-4,1.1-7.6,0.7-10.4-2.7c-2.5-3.1-2.7-10.2-0.5-13.8c2.4-3.8,5.9-4.4,10-3.6
	C414.2,278.1,414.9,278.2,415.9,278.4z M416.8,287.9c0.4-3.2-1-5.4-4.5-5.4c-3.8-0.1-5.1,2.8-5.1,5.9c0,3,1.5,5.5,5.1,5.3
	C415.9,293.6,417.1,291.4,416.8,287.9z"/>
<path class="st6" d="M535.2,274.6c0,2.7,0,4.5,0,6.7c1.6-0.2,3-0.5,4.4-0.6c5.8-0.4,9.6,2.6,9.9,8c0.4,5.6-3,9.9-8.8,9.8
	c-3.1,0-6.3-1.4-9.3-2.5c-0.5-0.2-0.4-2.2-0.6-3.3c1,0,2.1-0.3,3.1,0c1.6,0.5,3.1,2,4.5,1.8c2.1-0.2,4.5-1.1,5.9-2.5
	c0.8-0.9,0.8-4.1-0.1-4.9c-1.5-1.3-4-2-6.1-2.2c-2.2-0.2-4.5,0.6-6.8,0.9c-0.2-2.3-0.6-4.6-0.7-6.9c-0.5-7.3,0.2-8.1,7.4-8.1
	c2.5,0,5-0.1,7.5,0.1c0.9,0.1,1.6,1.2,2.4,1.8c-0.8,0.6-1.6,1.8-2.4,1.8C542.2,274.7,538.9,274.6,535.2,274.6z"/>
<path class="st17" d="M910.9,293.6c2.5-1.3,5-3.6,7.6-3.7c2.7,0,6.3,1.4,8,3.4c1.2,1.5-0.1,5-0.3,8.9c1.6,1.9,3.3,5.3-0.5,8.7
	c-3.9,3.5-10.2,2.8-14.8-1.4c0.5-3,1.1-6,1.6-9.1C912,298.5,911.5,296,910.9,293.6z M918.8,309.7c1.8-1.6,2.9-2.5,4-3.5
	c-1.3-0.9-2.5-2.5-3.8-2.6c-1.2-0.1-2.5,1.4-3.7,2.2C916.3,307,917.3,308.1,918.8,309.7z M920.5,292.3c-0.7,0.4-1.3,0.8-2,1.2
	c-0.8,1-1.7,2-2.5,3c1,0.7,2,2.1,2.9,2c1.1-0.1,2.9-1.3,3.1-2.2C922.1,295.1,921,293.6,920.5,292.3z"/>
<path class="st15" d="M839.9,289.6c0.1-0.2,0.2-0.5,0.2-0.8c0.3-0.4,0.6-0.8,0.9-1.2c0.3-0.3,0.6-0.6,1-1c1-0.4,2-0.9,3-1.3
	c1.3,0,2.7,0.1,4,0.1c0.3,0.1,0.6,0.2,1,0.3c0.9,1.3,1.8,2.6,2.7,3.9c-0.8,2.6-2.8,5.5-2.2,7.6c1.4,4.8,0.7,8.5-2.7,12
	c-0.5,0.5-0.7,1.5-1,2.3c-4.3,2.5-7.7-0.7-9.5-3.2c-1-1.4,1.9-5.6,3.1-8.5c0.4,0.1,0.8,0.2,1.2,0.3c-0.5-1.2-1.1-2.3-1.6-3.5
	c-0.1-0.3-0.1-0.7-0.2-1c0-1.7,0-3.3,0-5C839.8,290.2,839.9,289.9,839.9,289.6z"/>
<path class="st15" d="M878.9,285.7c3.5,2.2,5.1,5.7,3.7,9.3c-1.5,3.8-0.8,6.1,2,8.9c2.5,2.5,2.4,5.4-1.6,6.8
	c-8,1.3-12.1-3.2-11.3-11.8c0.3-3-1.2-6.2-1.9-9.3c0.8-1.3,1.5-2.5,2.3-3.8c1-0.2,1.9-0.4,2.9-0.6c1,0.1,2,0.1,3,0.2
	C878.3,285.6,878.6,285.7,878.9,285.7z"/>
<path class="st16" d="M465.8,283.6c0.4-1.9,0.8-3.7,1.2-5.6c1.4,1.4,3.1,2.5,4.1,4.1c1.3,2.2,2.1,4.8,3.6,8.3c1.7-4,2.8-7.1,4.3-10
	c0.6-1.1,2.4-1.7,3.6-2.5c0.4,1.4,1.6,3.1,1.2,4.1c-2.6,6.9-5.3,13.7-8.4,20.3c-0.7,1.4-3,2.5-4.7,2.9c-1.3,0.3-2.9-0.8-4.4-1.2
	c1-1.1,2.2-2,2.8-3.2c0.9-1.6,2.1-3.7,1.7-5.2c-1-3.7-2.9-7.1-4.4-10.6C466.3,284.6,466,284.1,465.8,283.6z"/>
<path class="st16" d="M514.4,294c3.2,0.2,5.4,0.1,7.5,0.4c1.1,0.2,2.1,1,3.2,1.5c-0.9,0.7-1.8,1.9-2.8,2c-4.5,0.2-9,0.1-13.5,0
	c-0.9,0-2.4-0.7-2.4-1.2c-0.1-1,0.3-2.3,1-3c2.3-2.2,4.8-4.1,7.2-6.2c1.1-1,2.3-2,3.2-3.2c2-2.5,4.2-5.4,1.5-8.5
	c-2.5-2.8-5.6-1.8-8.6-0.2c-1,0.6-2.6,0.2-3.9,0.3c0.5-1.2,0.8-2.8,1.7-3.6c3.7-3.2,10.5-3.1,13.9,0c3.6,3.3,3.7,8.2-0.1,13
	C520.1,288.3,517.6,290.6,514.4,294z"/>
<path class="st16" d="M398.9,289.3c0,1.5,0.4,3.1-0.1,4.5c-0.5,1.6-1.8,2.9-2.7,4.4c-0.9-1.5-2.1-3-2.6-4.6c-0.4-1.7,0-3.6-0.1-5.5
	c-0.1-2.4,0.5-5.5-3.2-5.5c-3.9,0-4.3,2.8-4.2,5.9c0.1,2.2,0.3,4.4-0.1,6.5c-0.2,1.2-1.5,2.2-2.3,3.3c-1-1.1-2.7-2.1-2.8-3.3
	c-0.3-4.6-0.2-9.3,0-13.9c0-1,1.2-2.8,2-2.9c3.4-0.4,6.8-0.5,10.2-0.4c3.6,0.1,5.4,2.4,5.8,5.7C399,285.3,398.8,287.3,398.9,289.3
	C398.8,289.3,398.8,289.3,398.9,289.3z"/>
<path class="st16" d="M457,277.8c0.2,0.2,0.3,0.2,0.5,0c0.5,0.3,0.9,0.6,1.4,0.9c0,0,0,0,0,0c0.4,0.3,0.7,0.7,1.1,1
	c0.3,0.3,0.6,0.6,0.9,1c0.3,0.4,0.7,0.7,1,1.1c0,0,0,0,0,0c0.3,2.6,0.5,5.2,0.8,7.8c-0.2,0-0.4,0.1-0.6,0.3c-4.3,0-8.6,0-13.6,0
	c2.2,4.2,4.4,5.3,7.8,4.4c1.5-0.4,3.1-0.3,4.6-0.4c-0.7,1.3-1.1,3.3-2.2,3.8c-5.9,2.7-11,0.8-14.8-4.9c-0.3-1.6-0.6-3.3-0.9-4.9
	c0.1-6.5,3.8-9.6,11.9-10.1C455.6,277.6,456.3,277.7,457,277.8z M457.5,286.2c0.3-0.5,0.5-1.1,0.8-1.6c-1.7-0.9-3.5-2.6-5.2-2.6
	c-1.5,0-3,1.9-4.4,2.9c0.3,0.4,0.5,0.8,0.8,1.3C452.1,286.2,454.8,286.2,457.5,286.2z"/>
<path class="st18" d="M380.3,312.8c3.5-0.2,7.4-1.2,10.5-0.2c2.3,0.8,3.1,0.2,4.2-1.1c3,0,6,0,9-0.1c0.4,0.4,0.8,0.8,1.1,1.1
	c-2.7,1.1-5.3,2.1-8,3.2c0,0.3-0.1,0.7-0.1,1c2.4,0.5,4.8,1.1,7.1,1.6c0,0.5-0.1,1-0.1,1.4c-2.3,0.5-4.6,0.9-7,1.4
	c0,0.5-0.1,1-0.1,1.5c1.4,0.3,2.8,0.4,4,1c1.4,0.7,2.5,1.8,3.7,2.8c-1,0.1-2,0.1-3,0.2c-5,0.6-9,0.2-8.2-6.5c0-0.4-0.5-0.8-1.3-2.1
	c-1.8,4.2-8.6,1.2-8.7,7.6c0,0.3-1.4,0.9-1.5,0.8c-0.8-0.9-1.4-2-2.1-3C380.1,319.9,380.2,316.3,380.3,312.8z"/>
<path class="st16" d="M355.8,293c3.4,0,6-0.3,8.6,0.1c1.1,0.2,2.1,1.6,3.1,2.5c-1,0.8-2.1,1.7-3.2,2.4c-0.4,0.2-1,0.1-1.5,0.1
	c-14.7-0.1-12.7,1.6-12.8-12.2c0-2.8-0.2-5.7,0.1-8.5c0.2-2.5-1.6-6.7,2.9-6.5c4.4,0.1,2.5,4.3,2.7,6.8
	C356,282.4,355.8,287.3,355.8,293z"/>
<path class="st16" d="M438.9,286.7c0.1,0.2,0.3,0.2,0.5,0.1c0.4,0.3,0.9,0.6,1.3,0.9c0,0-0.1,0.1-0.1,0.1c-0.2,2.9-0.4,5.9-0.6,8.8
	c-1.4,0.6-2.8,1.3-4.2,1.9c-1.3,0-2.7,0.1-4,0.1c-0.6-0.1-1.1-0.2-1.7-0.3c-1.1-0.4-2.1-0.8-3.2-1.1c-0.5-1.3-0.9-2.5-1.4-3.8
	c1.3-0.1,2.8-0.5,4-0.2c2.5,0.6,4.9,2.3,7.4-1.5c-2.5-0.8-4.6-1.4-6.6-2.1c-3.2-0.9-5.5-2.8-5-6.3c0.5-3.6,2.9-5.6,6.5-5.6
	c2.1,0,4.2,0.4,6.2,0.8c3.1,0.6,3.1,2.4,1.6,4.6c-3,0.2-6.5-4.2-9.8,1.3C433.3,285.3,436.1,286,438.9,286.7z"/>
<path class="st19" d="M539.6,326.6c-0.5-1.6-1.2-3.6-2-6.3c-0.9,1.7-1.1,3.2-1.9,3.6c-2.5,1.3-5.3,3.4-7.7,3
	c-2.1-0.3-3.9-3.4-5.6-5.3c-0.4-0.5-0.4-1.6-0.2-2.4c0.6-2.5,1.3-5,2-7.5c0.6,2.3,1,4.6,2,6.8c0.8,1.9,2.3,3.4,3.5,5.1
	c0.9-1.7,1.9-3.4,2.5-5.2c0.9-2.6-1.9-7.3,4-6.8c1.8,0.1,5.1,0.3,5.1,0.8c0.4,2.9,0.2,5.9-0.1,8.8
	C541,322.9,540.2,324.7,539.6,326.6z"/>
<path class="st19" d="M513.1,310.8c4.8,0.1,8,3.5,7.9,8.5c-0.1,4.9-3.5,8.2-8.3,8c-4.8-0.2-7.8-3.5-7.8-8.5
	C505,314,508.4,310.7,513.1,310.8z M518.9,318.9c-2.9-2-4.6-4.1-6.2-4.1c-1.3,0.1-3.7,2.8-3.6,4.1c0.2,1.7,2.3,4.1,3.8,4.4
	C514.3,323.5,516.1,321.1,518.9,318.9z"/>
<path class="st18" d="M406.2,312.6c3.2-0.3,6.6-1.4,9.6-0.7c1.3,0.3,2.5,4,2.6,6.3c0.1,2.3-1.1,4.6-1.4,7.5
	c-3.5,2.4-3.4-3.3-6.5-3.8c-1.2,1.4,0.4,6.1-4.1,4.4C406.3,321.8,406.2,317.2,406.2,312.6z"/>
<path class="st18" d="M362.2,324.7c-2.7,0.7-5.3,1.6-8.1,2c-0.9,0.1-2.1-1.3-3.1-2c0.8-1,1.6-2,2.6-3.4c0,0.3,0.1-0.1-0.1-0.3
	c-1.7-2.3-4.9-4.5-2.2-7.7c3-3.6,6.8-2.6,10.3-0.6c0.1,0.6,0.1,1.3,0.2,1.9c-0.3,0.2-0.5,0.3-0.8,0.5c-1.9-0.1-3.9-0.2-5.8-0.4
	c-0.1,0.5-0.2,1-0.2,1.4c2.2,0.9,4.5,1.7,6.7,2.6c0,0,0.1,0,0.1,0c0.3,0.3,0.6,0.7,0.9,1c0,0,0,0.1,0,0.1
	C362.6,321.4,362.4,323.1,362.2,324.7z"/>
<path class="st18" d="M470,324.7c0-2.3-0.3-4.7,0-7c0.3-2.4-1.7-6,3.2-6.3c6.5-0.5,10.1,1.5,10.8,6.1c0.7,4.5-1.3,8.3-5.2,8.8
	c-2.8,0.4-5.8-0.4-8.7-0.7C470,325.4,470,325,470,324.7z M471.5,318.8c1.9,2.1,3.2,3.5,4.4,4.8c1.6-1.5,3.2-3,4.8-4.5
	c-1.6-1.5-3.1-3.2-5-4.4C475.3,314.5,473.5,316.8,471.5,318.8z"/>
<path class="st19" d="M470,324.7c0,0.3,0,0.7,0,1c-3.4,0.3-6.9,0.6-10.3,0.9c-0.2,0-0.4,0-0.5-0.1c-0.7-1.9-2.2-3.9-2-5.7
	c0.3-3.1-2.3-7.5,2.1-9.1c2.6-1,5.9-0.2,8.9-0.2c0.1,0.7,0.1,1.4,0.2,2c-2.4,0.6-4.8,1.1-7.2,1.7c-0.1,0.4-0.1,0.8-0.2,1.1
	c2.4,0.6,4.8,1.3,7.2,1.9c0.1,0.4,0.1,0.8,0.2,1.2c-2.5,0.6-5,1.3-7.5,1.9c0,0.4,0,0.9,0,1.3C464,323.4,467,324.1,470,324.7z"/>
<path class="st17" d="M898.2,294.7c1.2-1.1,2.4-2.3,3.6-3.4c1.9-2,3.7-2.1,5.4,0.2c0,6.7-0.1,13.4-0.1,20.1
	c-0.7,0.4-1.4,0.7-2.1,1.1c-0.6-0.1-1.2-0.2-1.8-0.3c0,0,0,0,0,0c0-0.3-0.1-0.6-0.2-0.8c-0.1-4-0.2-8-0.3-11.9c0-0.7,0-1.5,0-2.2
	c-0.6,0.4-1.1,0.7-1.7,1.1c-0.7,0.1-1.3,0.3-2,0.4c-0.3-0.1-0.7-0.2-1-0.3c-0.1-1-0.1-2-0.2-3C898,295.3,898.2,295,898.2,294.7z"/>
<path class="st18" d="M444,311.6c1.3,0.9,2.7,1.9,4.2,3c1.4-0.9,3.4-2.2,5.4-3.5c0.6,0.3,1.3,0.6,1.9,0.9c-5.5,4.8-4.6,9.4,0.2,13.9
	c-0.6,0.3-1.1,0.7-1.7,1c-2-1.4-4.1-2.7-5.6-3.7c-1.6,1.2-3.1,2.3-4.5,3.4C444,321.6,444,316.6,444,311.6z"/>
<path class="st18" d="M364.7,319.5c0.2-2.6,0.5-5.3,0.7-7.9c0.6,0,1.3-0.1,1.9-0.1c0.3,1.9,0.6,3.7,0.8,5.6c0.2,2.8-0.4,6.4,3.6,6.4
	c3.6-0.1,3.2-3.6,3.2-6.2c0-1.2-0.4-2.6,0.2-3.4c0.6-0.8,2.1-0.9,3.2-1.3c-0.1,3.7-0.2,7.4-0.2,11.1c-4.1,4.7-7.5,4.9-12.7,0.8
	C365,322.8,364.8,321.1,364.7,319.5z"/>
<path class="st16" d="M376,288.5c0,2.2,0.3,4.4-0.1,6.4c-0.2,1.2-1.5,2.2-2.3,3.2c-1-0.9-2.7-1.8-2.7-2.8c-0.3-4.8-0.3-9.6,0-14.4
	c0-0.9,1.8-1.7,2.8-2.5c0.8,1,2.1,2,2.3,3.1C376.2,283.8,376,286.2,376,288.5C376,288.5,376,288.5,376,288.5z"/>
<path class="st18" d="M493.4,310.2c1.1,2.1,2.3,4.2,3.4,6.2c2.2-2,4-3.6,5.7-5.3c0.4,0.4,0.8,0.7,1.2,1.1c-0.3,1-0.5,2.1-0.8,3.1
	c-1.1,3-2.2,6.1-3.4,9.1c-0.3,0.8-1,1.6-1.8,2c-0.3,0.2-1.5-0.6-1.7-1.2c-1.6-3.7-3.2-7.5-4.7-11.2c-0.2-0.6-0.1-1.2-0.2-1.8
	C492,311.5,492.7,310.8,493.4,310.2z"/>
<path class="st14" d="M869.8,289.6c0.7,3.1,2.2,6.3,1.9,9.3c-0.8,8.5,3.3,13.1,11.3,11.8c-1.3,0.6-2.5,1.5-3.9,1.9
	c-2,0.5-4.1,0.7-6.1,1.1c-3.7-6.2-6.3-12.5-4.3-20c0.3-1.1-1.1-2.7-1.8-4C867.9,289.6,868.8,289.6,869.8,289.6z"/>
<path class="st19" d="M438,326.2c-14.6,1.5-11.6,0.7-11.8-12.2c0-0.9,1.3-1.9,2-2.8c0.6,1,1.6,2,1.7,3.1c0.2,2.8,0.1,5.6,0.1,9.1
	c2.9,0,5.4,0,8,0C437.9,324.3,438,325.3,438,326.2z"/>
<path class="st14" d="M907.1,311.6c0-6.7,0.1-13.4,0.1-20.1c1.2,0.7,2.5,1.4,3.7,2.1c0.5,2.4,1.1,4.9,1.5,7
	c-0.5,3.1-1.1,6.1-1.6,9.1C909.6,310.3,908.4,310.9,907.1,311.6z"/>
<path class="st14" d="M846.8,311.4c0.3-0.8,0.4-1.7,1-2.3c3.4-3.5,4.1-7.2,2.7-12c-0.6-2.2,1.4-5.1,2.2-7.6c0.8,0,1.6,0.1,2.4,0.1
	c-2.3,4-2.5,8-0.7,12.3c0.5,1.2-0.5,3.2-1.2,4.7c-1,2.4-2.2,4.6-3.4,6.9C848.8,312.9,847.8,312.1,846.8,311.4z"/>
<path class="st20" d="M406.2,312.6c0.1,4.6,0.2,9.1,0.2,13.7c-0.5,0-1.1,0.1-1.6,0.1c-1.2-0.9-2.4-2.1-3.7-2.8c-1.2-0.6-2.7-0.7-4-1
	c0-0.5,0.1-1,0.1-1.5c2.3-0.5,4.6-0.9,7-1.4c0-0.5,0.1-1,0.1-1.4c-2.4-0.5-4.8-1.1-7.1-1.6c0-0.3,0.1-0.7,0.1-1
	c2.7-1.1,5.3-2.1,8-3.2C405.4,312.6,405.8,312.6,406.2,312.6z"/>
<path class="st6" d="M487.9,303c-0.6-2.4-1.4-4.5-1.4-6.5c0-1.4,0.9-3.8,1.6-3.9c1.4-0.1,3.7,0.6,4.4,1.7
	C494.5,297.4,491.9,301.8,487.9,303z"/>
<path class="st14" d="M460.9,293.7c-1.5,0.1-3.2,0-4.6,0.4c-3.4,1-5.7-0.2-7.8-4.4c5,0,9.3,0,13.6,0
	C461.7,291.1,461.3,292.4,460.9,293.7z"/>
<path class="st6" d="M639.7,259.6c0.2-4.1,0.4-8.3,0.7-12.4c0.7,0,1.4,0,2.2-0.1c0.3,4.5,0.6,9,0.9,13.4c-0.1,0.7-0.2,1.3-0.3,2
	c-0.3,0.2-0.4,0.5-0.5,0.8c-0.2,0-0.4,0-0.6,0.2c-0.3-0.1-0.7-0.1-1,0C640.6,262.2,640.1,260.9,639.7,259.6z"/>
<path class="st14" d="M444,311.6c0,5,0,10,0,15c-1.1,0-2.1-0.1-3.2-0.1c0-3.7,0.3-7.5,0-11.2c-0.1-1.3-1.8-2.4-2.8-3.6
	C440,311.6,442,311.6,444,311.6z"/>
<path class="st18" d="M438,311.6c1,1.2,2.6,2.3,2.8,3.6c0.3,3.7,0,7.5,0,11.2c-0.9-0.1-1.9-0.1-2.8-0.2c0-0.9-0.1-1.9-0.1-2.8
	C437.9,319.4,438,315.5,438,311.6z"/>
<path class="st6" d="M377.9,273.8c-2.4,1.3-3.8,2.7-4.9,2.5c-1.1-0.2-2-2-2.9-3.2c1.1-0.9,2.1-2.4,3.2-2.4
	C374.5,270.9,375.7,272.3,377.9,273.8z"/>
<path class="st14" d="M438.9,286.7c-2.8-0.7-5.6-1.4-8.9-2.2c3.3-5.4,6.8-1,9.8-1.3C439.5,284.4,439.2,285.5,438.9,286.7z"/>
<path class="st15" d="M634.4,251c1.2,0.8,2.9,1.3,3.4,2.4c0.6,1.4,0.1,3.2,0.1,4.8c-2.5,1.1-3.7,0.2-3.8-2.4
	C634.1,254.2,634.3,252.6,634.4,251z"/>
<path class="st15" d="M648,258.8c-5-1.7-2.5-5.3-2.1-8.4c1,0.4,2,0.7,2.9,1.1c-0.1,2.3-0.2,4.6-0.2,6.9
	C648.4,258.5,648.2,258.6,648,258.8z"/>
<path class="st14" d="M855,316.6c4.3,0,8.7,0,13,0.1C863.6,319.5,859.3,319.6,855,316.6z"/>
<path class="st14" d="M378,323.6c0.1-3.7,0.2-7.4,0.2-11.1c0.7,0.1,1.4,0.2,2,0.3c-0.1,3.6-0.1,7.2-0.2,10.8
	C379.4,323.5,378.7,323.6,378,323.6z"/>
<path class="st14" d="M361.8,318.7c-2.2-0.9-4.5-1.7-6.7-2.6c0.1-0.5,0.2-1,0.2-1.4c1.9,0.1,3.9,0.2,5.8,0.4
	C361.4,316.3,361.6,317.5,361.8,318.7z"/>
<path class="st14" d="M440.2,296.7c0.2-2.9,0.4-5.9,0.6-8.8c0.8-0.1,1.6-0.1,2.4-0.2c0.3,1.6,0.6,3.3,0.9,4.9
	C442.7,293.9,441.4,295.3,440.2,296.7z"/>
<path class="st14" d="M462.6,289.4c-0.3-2.6-0.5-5.2-0.8-7.8c1.3,0.6,2.6,1.3,4,1.9c0.2,0.5,0.5,1,0.7,1.6
	C465.2,286.6,463.9,288,462.6,289.4z"/>
<path class="st14" d="M364.7,319.5c0.2,1.6,0.4,3.3,0.6,4.9c-1,0.1-2,0.2-3,0.3c0.2-1.6,0.4-3.2,0.6-4.8
	C363.4,319.7,364,319.6,364.7,319.5z"/>
<path class="st20" d="M404,311.4c-3,0-6,0-9,0.1C398,311.5,401,311.4,404,311.4z"/>
<path class="st14" d="M648.7,258.4c0.1-2.3,0.2-4.6,0.2-6.9C648.8,253.9,648.8,256.2,648.7,258.4z"/>
<path class="st14" d="M845,285.3c-1,0.4-2,0.9-3,1.3C843,286.2,844,285.8,845,285.3z"/>
<path class="st14" d="M901,298.5c0.6-0.4,1.1-0.7,1.7-1.1c0,0.7,0,1.5,0,2.2C902.1,299.2,901.5,298.9,901,298.5z"/>
<path class="st14" d="M432,298.7c1.3,0,2.7-0.1,4-0.1C434.7,298.6,433.3,298.6,432,298.7z"/>
<path class="st14" d="M875,285.2c-1,0.2-1.9,0.4-2.9,0.6C873,285.6,874,285.4,875,285.2z"/>
<path class="st14" d="M427.1,297.3c1.1,0.4,2.1,0.8,3.2,1.1C429.2,298,428.2,297.6,427.1,297.3z"/>
<path class="st14" d="M851.1,315.2c0.7,0.4,1.4,0.7,2.1,1.1C852.6,316,851.9,315.6,851.1,315.2z"/>
<path class="st14" d="M903.1,312.4c0.6,0.1,1.2,0.2,1.8,0.3C904.4,312.6,903.8,312.5,903.1,312.4z"/>
<path class="st14" d="M361.9,314.6c-0.1-0.6-0.1-1.3-0.2-1.9C361.8,313.3,361.9,313.9,361.9,314.6z"/>
<path class="st14" d="M457,277.8c-0.7-0.1-1.3-0.2-2-0.3C455.6,277.6,456.3,277.7,457,277.8z"/>
<path class="st14" d="M849.9,285.7c-0.3-0.1-0.6-0.2-1-0.3C849.3,285.5,849.6,285.6,849.9,285.7z"/>
<path class="st14" d="M461.9,281.7c-0.3-0.4-0.7-0.7-1-1.1C461.2,281,461.6,281.3,461.9,281.7z"/>
<path class="st14" d="M460,279.7c-0.4-0.3-0.7-0.7-1.1-1C459.2,279,459.6,279.3,460,279.7z"/>
<path class="st14" d="M458.9,278.7c-0.5-0.3-0.9-0.6-1.4-0.9C457.9,278.1,458.4,278.4,458.9,278.7z"/>
<path class="st14" d="M641,263.5c0.3-0.1,0.7-0.1,1,0C641.6,263.5,641.3,263.5,641,263.5z"/>
<path class="st14" d="M642.6,263.4c0.1-0.3,0.3-0.6,0.5-0.8C642.9,262.8,642.8,263.1,642.6,263.4z"/>
<path class="st14" d="M878.9,285.7c-0.3,0-0.7-0.1-1-0.3C878.3,285.5,878.6,285.6,878.9,285.7z"/>
<path class="st14" d="M440.8,287.8c-0.4-0.3-0.9-0.6-1.3-0.9C439.9,287.2,440.4,287.5,440.8,287.8z"/>
<path class="st14" d="M859,287.5c-0.3,0.2-0.6,0.2-0.9,0.2C858.4,287.7,858.7,287.6,859,287.5z"/>
<path class="st14" d="M864,287.7c-0.3-0.1-0.7-0.1-1-0.2C863.3,287.5,863.6,287.6,864,287.7z"/>
<path class="st14" d="M841,287.6c-0.3,0.4-0.6,0.8-0.9,1.2C840.4,288.4,840.7,288,841,287.6z"/>
<path class="st14" d="M839.9,289.6c-0.1,0.3-0.1,0.7-0.2,1c-0.1-0.3-0.2-0.5-0.2-0.8C839.6,289.7,839.8,289.6,839.9,289.6z"/>
<path class="st14" d="M898.2,294.7c-0.1,0.3-0.2,0.6-0.4,0.8C898,295.3,898.1,295,898.2,294.7z"/>
<path class="st14" d="M839.8,295.6c0.1,0.3,0.1,0.7,0.2,1c-0.2-0.2-0.3-0.4-0.4-0.7C839.5,295.8,839.7,295.7,839.8,295.6z"/>
<path class="st14" d="M898,298.6c0.3,0.1,0.7,0.2,1,0.3C898.7,298.7,898.3,298.7,898,298.6z"/>
<path class="st14" d="M902.9,311.6c0.2,0.2,0.2,0.5,0.2,0.8c-0.2-0.2-0.4-0.3-0.6-0.5C902.7,311.8,902.8,311.7,902.9,311.6z"/>
<path class="st14" d="M362.8,319.7c-0.3-0.3-0.6-0.7-0.9-1C362.2,319,362.5,319.4,362.8,319.7z"/>
<path class="st14" d="M870.6,316.3c0.4-0.3,0.8-0.7,1.3-1C871.4,315.6,871,316,870.6,316.3z"/>
<path class="st1" d="M626,523.1c-1.5,47-36.9,84.1-84.1,84c-48.5-0.1-84.5-36.6-84.5-85.5c0.1-45.4,36.7-84.2,87.2-83.1
	C588.7,439.6,625.5,476.2,626,523.1z M558.7,524.8c5-5.9,9.8-11.4,14.5-17c3.8-4.6,3.9-10.3,0.4-13.5c-3.9-3.6-8.5-3.3-13.4,1
	c-4.4,3.8-8.8,7.6-13,11.6c-2.4,2.3-4.2,2.3-6.7,0c-4.7-4.4-9.6-8.8-14.7-12.7c-1.9-1.4-5-2.3-7.3-2c-7.2,1.1-9.6,9-4.7,15
	c4.1,5.1,8.4,9.9,12.7,14.7c2,2.2,1.7,3.8-0.2,5.9c-4.1,4.4-7.9,9-11.8,13.6c-4.3,5-4.5,9.9-0.6,13.7c3.7,3.6,8.5,3.4,13.4-0.8
	c4.5-3.9,9-7.9,13.4-12c2.1-2,3.7-2.1,5.9,0c4.3,4,8.7,7.7,13.1,11.5c5.1,4.4,10.1,5,13.8,1.5c3.9-3.6,3.4-9.5-1.1-14.7
	C567.9,535.5,563.5,530.3,558.7,524.8z"/>
<path class="st1" d="M674.2,460.5c6.4,4.1,12.8,8.2,19.9,12.6c-4.5,1.7-8.2,3.1-13.2,5c10.1,0,18.7,0,27.9,0
	c-3.4-8.2-6.7-16-10-23.9c-0.2,0.1-0.5,0.1-0.7,0.2c0,3.7,0,7.3,0,11.9c-5.8-3.9-11-7.5-16.1-11c2.8-2.2,5.3-4.7,8.3-6.4
	c14.4-8.2,30-11.7,46.4-10.3c24.2,2.1,44.4,12.2,59.7,31.6c13.7,17.3,20.1,37,18.4,58.8c-1.5,18.7-8.7,35.5-21.5,49.7
	c-12.9,14.3-28.5,23.4-47.5,27c-23.8,4.5-45.6-1-64.9-15c-19.6-14.3-31.1-34.1-33.7-58.1c-2.6-24.3,3.5-46.4,20.2-65
	C669.6,465.2,671.9,462.9,674.2,460.5z M732.3,501c-1.4-1.2-2.5-2-3.5-2.8c-9.5-8.1-22.1-7.2-30.2,2.3c-8.2,9.5-7.9,25.4,1.2,34.2
	c9.5,9.3,19.5,18.2,29.2,27.3c2.4,2.2,4.2,1.8,6.4-0.2c6.2-5.8,12.6-11.4,18.8-17.2c4.4-4.1,9-8,12.6-12.7
	c10.9-14.3,2.6-35.8-14.6-38.8C744.1,491.6,738.1,495.4,732.3,501z"/>
<path class="st21" d="M338,488.8c-1.2-27.7,23.9-50.7,50.1-50.3c29.1,0.5,50.9,22.3,50.5,51.5c-0.3,26.5-21.1,49.5-50.8,49.5
	C359.6,539.5,337.5,516.4,338,488.8z M388.7,480.5c6.1,0.3,9.8,3.5,12,8.5c2.3,5.3,1.1,10.1-2.8,14.2c-3.9,4-8.6,5.5-14.1,3.5
	c-5.5-1.9-8.2-5.8-9.1-11.4c-0.5-3.3-1.8-6.4-6-5.8c-4,0.6-4.4,4-3.7,7c1,3.8,2.3,7.7,4.4,10.9c7.3,11,22.6,12.9,33.3,4.4
	c10.1-7.9,11.9-23.7,2.8-32.7c-4.6-4.5-11.1-7.2-17.6-11.2c-0.7-5.6-1.8-6.1-8-2.1c-2.6,1.7-5.3,3.4-7.8,5.3c-3.3,2.5-3.3,5.2,0,7.7
	c2.4,1.8,4.9,3.5,7.3,5.2C385.9,488.6,386.8,488.3,388.7,480.5z"/>
<path class="st22" d="M915,531.6c-1,0.7-2,1.3-3,2c-1.7,1-3.3,2-5,3c0,0,0,0,0,0c-1.6,0.3-3.2,0.4-4.8,0.8c-9,2.3-18.2,3.4-27.3,0.6
	c-5.7-1.8-11.3-4.2-16.9-6.4c0,0,0,0,0,0c-1-0.7-2-1.3-3-2c-4.6-6.4-9.7-12.6-13.7-19.4c-6.8-11.5-6.9-24-3.2-36.5
	c3.3-11.2,10.5-19.9,20-26.6c10.7-7.5,22.7-9.7,35.5-8.2c11.1,1.2,20.8,5.8,28.6,13.5c8.5,8.3,14,18.4,14.9,30.6
	c1,12.9-1.4,24.9-9.1,35.4c-2.9,4-6.6,7.4-10,11.1C917,530.2,916,530.9,915,531.6z M884.9,504.5C884.9,504.5,885,504.5,884.9,504.5
	c0.5,0.7,0.9,1.4,1.3,2.1c-0.1,0.6-0.2,1.2-0.4,1.9c-1.6,0.2-3.1,0.5-4.7,0.7c-0.8,3.9-0.3,6.8,4.6,6.4c0.1,0.6,0.3,1.2,0.4,1.8
	c0.6,0,1.3,0.1,1.9,0.1c0.3-1,0.6-2,0.9-3.1c0.4-0.1,0.8-0.1,1.2-0.2c0.6,0.2,1.2,0.4,1.8,0.5c0.3-0.2,0.6-0.3,0.9-0.5
	c-0.8-1.9,2.5-5.8-2.6-5.7c-0.4-0.1-0.8-0.1-1.2-0.2c-0.3-0.7-0.6-1.4-1-2c0.6-0.7,1.3-1.4,1.9-2.1c2.2,1,4.4,2.5,6.7,3.1
	c5.2,1.3,8.4-1.3,7-6.3c-1.8-6.7,0-11.3,5.1-15.8c4.3-3.8,2.7-8.7-3-9.1c-6.6-0.5-10.8-3.1-13.2-9.3c-0.7-1.8-3.2-4-4.9-4
	c-1.7,0-4.3,2.1-5,3.9c-2.3,6-5.9,9.2-12.6,9.3c-1.9,0-4.8,2.1-5.5,3.9c-0.6,1.4,1,4.5,2.5,5.8c4.6,3.8,6.4,8,4.9,14
	c-0.5,2.2,0.1,5.9,1.6,6.9c1.5,1.1,4.7-0.3,7.2-0.6c0.4-0.2,0.7-0.5,1.1-0.7c0.7-0.1,1.3-0.3,2-0.4
	C884.3,505,884.6,504.8,884.9,504.5z"/>
<path class="st23" d="M858,531.6c5.6,2.2,11.2,4.6,16.9,6.4c9.1,2.9,18.2,1.8,27.3-0.6c1.6-0.4,3.2-0.6,4.8-0.8
	c-5.1,1.7-10,4.2-15.2,4.8c-11.2,1.2-22.1-0.9-31.7-7.3C859.2,533.5,858.7,532.4,858,531.6z"/>
<path class="st23" d="M907,536.6c1.7-1,3.3-2,5-3C910.3,534.5,908.6,535.5,907,536.6z"/>
<path class="st23" d="M915,531.6c1-0.7,2-1.3,3-2C917,530.2,916,530.9,915,531.6z"/>
<path class="st23" d="M855,529.5c1,0.7,2,1.3,3,2C857,530.9,856,530.2,855,529.5z"/>
<path class="st20" d="M416.8,287.9c0.3,3.5-0.9,5.7-4.5,5.8c-3.6,0.1-5.1-2.3-5.1-5.3c0-3.2,1.3-6,5.1-5.9
	C415.8,282.5,417.2,284.7,416.8,287.9z"/>
<path class="st20" d="M918.8,309.7c-1.5-1.6-2.5-2.7-3.6-3.9c1.2-0.8,2.6-2.3,3.7-2.2c1.3,0.1,2.6,1.7,3.8,2.6
	C921.7,307.2,920.6,308.2,918.8,309.7z"/>
<path class="st20" d="M920.5,292.3c0.5,1.3,1.7,2.7,1.4,3.9c-0.2,1-1.9,2.1-3.1,2.2c-0.9,0.1-1.9-1.3-2.9-2c0.8-1,1.7-2,2.5-3
	C919.1,293.1,919.8,292.7,920.5,292.3z"/>
<path class="st14" d="M457.5,286.2c-2.7,0-5.4,0-8.1,0c-0.3-0.4-0.5-0.8-0.8-1.3c1.5-1.1,3-3,4.4-2.9c1.8,0,3.5,1.7,5.2,2.6
	C458.1,285.1,457.8,285.6,457.5,286.2z"/>
<path class="st24" d="M518.9,318.9c-2.8,2.2-4.6,4.6-5.9,4.4c-1.6-0.2-3.7-2.7-3.8-4.4c-0.1-1.3,2.2-4,3.6-4.1
	C514.3,314.8,516,316.8,518.9,318.9z"/>
<path class="st20" d="M471.5,318.8c2.1-2,3.9-4.2,4.2-4c1.9,1.1,3.4,2.8,5,4.4c-1.6,1.5-3.2,3-4.8,4.5
	C474.6,322.2,473.4,320.9,471.5,318.8z"/>
<path class="st25" d="M558.7,524.8c4.8,5.6,9.2,10.7,13.7,15.9c4.5,5.2,5,11,1.1,14.7c-3.7,3.5-8.7,2.9-13.8-1.5
	c-4.4-3.8-8.9-7.6-13.1-11.5c-2.2-2-3.8-2-5.9,0c-4.3,4.1-8.8,8.1-13.4,12c-4.9,4.2-9.7,4.5-13.4,0.8c-4-3.8-3.8-8.7,0.6-13.7
	c3.9-4.5,7.7-9.2,11.8-13.6c1.9-2.1,2.2-3.7,0.2-5.9c-4.4-4.8-8.7-9.7-12.7-14.7c-4.9-6.1-2.5-13.9,4.7-15c2.3-0.4,5.4,0.5,7.3,2
	c5.2,3.9,10,8.3,14.7,12.7c2.5,2.4,4.3,2.3,6.7,0c4.2-4,8.6-7.8,13-11.6c5-4.3,9.6-4.5,13.4-1c3.5,3.2,3.4,8.9-0.4,13.5
	C568.6,513.4,563.8,518.9,558.7,524.8z"/>
<path class="st26" d="M106.5,99.9c4.1-4,8.4-6.7,14.1-5.7c12.2,2.2,18,17.4,10.3,27.5c-2.5,3.3-5.9,6.1-8.9,9
	c-4.4,4.1-8.9,8.1-13.3,12.2c-1.6,1.5-2.9,1.8-4.5,0.2c-6.9-6.5-13.9-12.7-20.7-19.3c-6.4-6.2-6.6-17.5-0.8-24.2
	c5.7-6.7,14.7-7.4,21.4-1.6C104.7,98.5,105.4,99,106.5,99.9z"/>
<path class="st27" d="M388.7,480.5c-1.9,7.8-2.8,8.1-9.2,3.6c-2.4-1.7-4.9-3.4-7.3-5.2c-3.3-2.5-3.3-5.2,0-7.7
	c2.5-1.9,5.2-3.6,7.8-5.3c6.1-4,7.3-3.5,8,2.1c6.6,4.1,13.1,6.7,17.6,11.2c9.1,9,7.2,24.7-2.8,32.7c-10.7,8.5-26,6.6-33.3-4.4
	c-2.1-3.2-3.4-7.1-4.4-10.9c-0.8-3-0.3-6.4,3.7-7c4.2-0.6,5.5,2.4,6,5.8c0.8,5.6,3.6,9.5,9.1,11.4c5.5,1.9,10.2,0.5,14.1-3.5
	c3.9-4.1,5.2-8.9,2.8-14.2C398.5,484,394.8,480.8,388.7,480.5z"/>
<path class="st24" d="M884,505.2c-0.7,0.1-1.3,0.3-2,0.4c-0.4,0.2-0.7,0.5-1.1,0.7c-2.5,0.3-5.7,1.6-7.2,0.6c-1.5-1-2.1-4.8-1.6-6.9
	c1.5-6-0.2-10.2-4.9-14c-1.5-1.3-3.1-4.3-2.5-5.8c0.7-1.8,3.5-3.8,5.5-3.9c6.7-0.1,10.3-3.3,12.6-9.3c0.7-1.8,3.3-3.9,5-3.9
	c1.7,0,4.2,2.2,4.9,4c2.4,6.2,6.5,8.8,13.2,9.3c5.7,0.4,7.3,5.3,3,9.1c-5.1,4.5-6.9,9-5.1,15.8c1.4,5-1.8,7.6-7,6.3
	c-2.4-0.6-4.5-2-6.7-3c-1.7-3-3.4-2.9-5,0.1c0,0-0.1,0-0.1,0C884.6,504.8,884.3,505,884,505.2z"/>
<path class="st14" d="M889.1,514.6c-0.3,1-0.6,2-1,3.1c-0.6,0-1.3-0.1-1.9-0.1c-0.1-0.6-0.3-1.2-0.4-1.8c0-2.4,0.1-4.8,0.1-7.1
	c0.1-0.6,0.2-1.2,0.4-1.9c0.6,0,1.2-0.1,1.9-0.1c0.3,0.7,0.6,1.4,1,2C889.1,510.6,889.1,512.6,889.1,514.6z"/>
<path class="st15" d="M885.9,508.5c0,2.4-0.1,4.8-0.1,7.1c-4.9,0.3-5.4-2.5-4.6-6.4C882.8,509,884.3,508.7,885.9,508.5z"/>
<path class="st14" d="M890.3,508.7c5.2-0.1,1.8,3.8,2.6,5.7c-0.3,0.2-0.6,0.3-0.9,0.5c-0.6-0.2-1.2-0.4-1.8-0.5
	C890.2,512.5,890.3,510.6,890.3,508.7z"/>
<path class="st5" d="M888.1,506.5c-0.6,0-1.2,0.1-1.9,0.1c-0.4-0.7-0.8-1.4-1.3-2.1c1.6-3,3.3-3.1,5-0.1
	C889.4,505.1,888.7,505.8,888.1,506.5z"/>
<path class="st6" d="M890.3,508.7c0,1.9,0,3.8,0,5.7c-0.4,0-0.8,0.1-1.2,0.2c0-2,0-4,0-6C889.5,508.6,889.9,508.7,890.3,508.7z"/>
<path class="st5" d="M880.9,506.3c0.4-0.2,0.7-0.5,1.1-0.7C881.6,505.8,881.3,506.1,880.9,506.3z"/>
<path class="st5" d="M886.2,517.5c0.6,0,1.3,0.1,1.9,0.1C887.5,517.6,886.8,517.5,886.2,517.5z"/>
<path class="st6" d="M892,515c0.3-0.2,0.6-0.3,0.9-0.5C892.6,514.6,892.3,514.8,892,515z"/>
<path class="st5" d="M884,505.2c0.3-0.2,0.6-0.4,0.9-0.6C884.6,504.8,884.3,505,884,505.2z"/>
</svg>
